<svg width="1440" height="772" viewBox="0 0 1440 772" fill="none" xmlns="http://www.w3.org/2000/svg">
<path d="M671.238 25V7.65625H673.699V15.0977H674.109C675.031 15.0977 675.711 14.9297 676.148 14.5938C676.586 14.2578 677.133 13.4844 677.789 12.2734C677.977 11.9219 678.125 11.6484 678.234 11.4531L678.703 10.668C679.453 9.39453 680.066 8.57812 680.543 8.21875C681.02 7.85156 681.715 7.66797 682.629 7.66797C682.645 7.66797 682.75 7.66406 682.945 7.65625V9.46094C682.383 9.46094 681.949 9.58203 681.645 9.82422C681.34 10.0586 680.961 10.5703 680.508 11.3594L680.121 12.0391L679.746 12.707C679.652 12.8711 679.492 13.1641 679.266 13.5859C678.688 14.6641 677.895 15.4336 676.887 15.8945C677.801 16.1055 678.539 16.4922 679.102 17.0547C679.672 17.6172 680.312 18.5977 681.023 19.9961L681.656 21.2617L682.312 22.5156L683.121 24.0625C683.199 24.2188 683.375 24.5312 683.648 25H681.07C680.875 24.6562 680.762 24.4531 680.73 24.3906L679.852 22.668C678.867 20.7461 678.082 19.3984 677.496 18.625C676.91 17.8438 676.27 17.293 675.574 16.9727H673.699V25H671.238ZM694.487 25.4336C692.081 25.4336 690.144 24.6016 688.675 22.9375C687.214 21.2656 686.483 19.0586 686.483 16.3164C686.483 13.5586 687.218 11.3555 688.687 9.70703C690.163 8.05078 692.132 7.22266 694.593 7.22266C697.046 7.22266 699.011 8.04688 700.487 9.69531C701.964 11.3438 702.702 13.543 702.702 16.293C702.702 19.0977 701.964 21.3242 700.487 22.9727C699.011 24.6133 697.011 25.4336 694.487 25.4336ZM694.522 23.5938C696.296 23.5938 697.667 22.957 698.636 21.6836C699.605 20.4023 700.089 18.5977 700.089 16.2695C700.089 14.0117 699.601 12.2461 698.624 10.9727C697.655 9.69922 696.312 9.0625 694.593 9.0625C692.866 9.0625 691.519 9.70312 690.55 10.9844C689.581 12.2578 689.097 14.0312 689.097 16.3047C689.097 18.5703 689.577 20.3516 690.538 21.6484C691.499 22.9453 692.827 23.5938 694.522 23.5938ZM719.482 7.65625V25H717.022V9.46094H711.537V9.84766L711.525 11.3711L711.432 14.2773C711.432 18.168 710.986 20.8828 710.096 22.4219C709.213 23.9531 707.596 24.8125 705.244 25V23.1953C706.283 23.0703 707.065 22.793 707.588 22.3633C708.111 21.9258 708.494 21.2305 708.736 20.2773C709.158 18.668 709.369 14.8281 709.369 8.75781V7.65625H719.482ZM737.294 7.65625V25H734.833V9.46094H729.349V9.84766L729.337 11.3711L729.243 14.2773C729.243 18.168 728.798 20.8828 727.907 22.4219C727.025 23.9531 725.407 24.8125 723.056 25V23.1953C724.095 23.0703 724.876 22.793 725.4 22.3633C725.923 21.9258 726.306 21.2305 726.548 20.2773C726.97 18.668 727.181 14.8281 727.181 8.75781V7.65625H737.294ZM742.742 25V7.65625H752.434V9.49609H745.203V15.0625H751.262V16.8789H745.203V23.1602H752.938V25H742.742ZM756.71 25V7.65625H759.171V15.0977H759.581C760.503 15.0977 761.183 14.9297 761.62 14.5938C762.058 14.2578 762.605 13.4844 763.261 12.2734C763.448 11.9219 763.597 11.6484 763.706 11.4531L764.175 10.668C764.925 9.39453 765.538 8.57812 766.015 8.21875C766.491 7.85156 767.187 7.66797 768.101 7.66797C768.116 7.66797 768.222 7.66406 768.417 7.65625V9.46094C767.855 9.46094 767.421 9.58203 767.116 9.82422C766.812 10.0586 766.433 10.5703 765.98 11.3594L765.593 12.0391L765.218 12.707C765.124 12.8711 764.964 13.1641 764.738 13.5859C764.159 14.6641 763.366 15.4336 762.359 15.8945C763.273 16.1055 764.011 16.4922 764.573 17.0547C765.144 17.6172 765.784 18.5977 766.495 19.9961L767.128 21.2617L767.784 22.5156L768.593 24.0625C768.671 24.2188 768.847 24.5312 769.12 25H766.542C766.347 24.6562 766.234 24.4531 766.202 24.3906L765.323 22.668C764.339 20.7461 763.554 19.3984 762.968 18.625C762.382 17.8438 761.741 17.293 761.046 16.9727H759.171V25H756.71ZM772.975 25V7.65625H775.436V23.1602H783.686V7.65625H786.147V23.1602H788.455V28.4688H786.147V25H772.975ZM792.38 25V7.65625H794.841V21.4609L803.22 7.65625H805.681V25H803.22V11.1953L794.841 25H792.38ZM811.129 25V7.65625H813.59V21.4609L821.969 7.65625H824.43V25H821.969V11.1953L813.59 25H811.129Z" fill="#2C2A29"/>
<path d="M1316.48 22.2891C1314.68 22.2891 1313.29 21.763 1312.31 20.7109C1311.33 19.6536 1310.84 18.1589 1310.84 16.2266C1310.84 14.2995 1311.34 12.8047 1312.34 11.7422C1313.34 10.6797 1314.74 10.1484 1316.55 10.1484C1317.59 10.1484 1318.8 10.3177 1320.2 10.6562V12.1953C1318.61 11.6484 1317.39 11.375 1316.53 11.375C1315.28 11.375 1314.3 11.7995 1313.62 12.6484C1312.93 13.4974 1312.59 14.6953 1312.59 16.2422C1312.59 17.7161 1312.95 18.8802 1313.69 19.7344C1314.42 20.5833 1315.42 21.0078 1316.7 21.0078C1317.79 21.0078 1318.96 20.6719 1320.21 20V21.4062C1319.07 21.9948 1317.83 22.2891 1316.48 22.2891ZM1322.65 22V13.5156H1324.33L1326.88 20.1484H1326.89L1329.39 13.5156H1331.18V22H1329.63V15.5547H1329.62L1327.41 21.4219H1325.93L1323.87 16.1094H1323.85V22H1322.65ZM1337.59 22.1953C1336.38 22.1953 1335.41 21.7943 1334.69 20.9922C1333.96 20.1849 1333.6 19.1068 1333.6 17.7578C1333.6 16.3932 1333.96 15.3151 1334.69 14.5234C1335.42 13.7266 1336.4 13.3281 1337.65 13.3281C1338.89 13.3281 1339.88 13.7266 1340.6 14.5234C1341.33 15.3151 1341.7 16.388 1341.7 17.7422C1341.7 19.1276 1341.33 20.2161 1340.6 21.0078C1339.87 21.7995 1338.87 22.1953 1337.59 22.1953ZM1337.62 21.0391C1339.25 21.0391 1340.06 19.9401 1340.06 17.7422C1340.06 15.5703 1339.26 14.4844 1337.65 14.4844C1336.04 14.4844 1335.24 15.5755 1335.24 17.7578C1335.24 19.9453 1336.03 21.0391 1337.62 21.0391ZM1345.75 22V14.75H1342.76V13.5156H1350.28V14.75H1347.29V22H1345.75ZM1352.01 25.0859V13.5156H1353.55V15.1094C1354.18 13.9219 1355.12 13.3281 1356.38 13.3281C1357.4 13.3281 1358.21 13.7005 1358.79 14.4453C1359.38 15.1901 1359.67 16.2083 1359.67 17.5C1359.67 18.9062 1359.34 20.0417 1358.67 20.9062C1358.01 21.7656 1357.14 22.1953 1356.05 22.1953C1355.05 22.1953 1354.21 21.8099 1353.55 21.0391V25.0859H1352.01ZM1353.55 19.9766C1354.34 20.6849 1355.09 21.0391 1355.81 21.0391C1357.29 21.0391 1358.03 19.9115 1358.03 17.6562C1358.03 15.6667 1357.38 14.6719 1356.06 14.6719C1355.2 14.6719 1354.36 15.138 1353.55 16.0703V19.9766ZM1368.3 21.7266C1367.27 22.0391 1366.39 22.1953 1365.66 22.1953C1364.41 22.1953 1363.39 21.7812 1362.59 20.9531C1361.81 20.1198 1361.41 19.0417 1361.41 17.7188C1361.41 16.4323 1361.76 15.3776 1362.45 14.5547C1363.15 13.7318 1364.04 13.3203 1365.12 13.3203C1366.15 13.3203 1366.94 13.6849 1367.5 14.4141C1368.06 15.1432 1368.34 16.1797 1368.34 17.5234L1368.34 18H1362.98C1363.21 20.0156 1364.2 21.0234 1365.95 21.0234C1366.59 21.0234 1367.37 20.8516 1368.3 20.5078V21.7266ZM1363.05 16.8438H1366.8C1366.8 15.2656 1366.21 14.4766 1365.03 14.4766C1363.85 14.4766 1363.19 15.2656 1363.05 16.8438ZM1372.66 22V14.75H1369.66V13.5156H1377.19V14.75H1374.2V22H1372.66ZM1378.91 22V13.5156H1380.45V16.9375H1381.2C1382.36 16.9375 1383.24 17.1432 1383.82 17.5547C1384.41 17.9661 1384.7 18.5833 1384.7 19.4062C1384.7 20.2708 1384.39 20.9193 1383.77 21.3516C1383.15 21.7839 1382.21 22 1380.97 22H1378.91ZM1380.45 20.8438H1381.07C1381.73 20.8438 1382.23 20.7266 1382.56 20.4922C1382.9 20.2578 1383.06 19.9036 1383.06 19.4297C1383.06 18.987 1382.9 18.6536 1382.57 18.4297C1382.24 18.2057 1381.75 18.0938 1381.09 18.0938H1380.45V20.8438ZM1391.98 22V13.5156H1394.93C1395.83 13.5156 1396.5 13.6693 1396.95 13.9766C1397.39 14.2839 1397.62 14.7448 1397.62 15.3594C1397.62 15.8802 1397.48 16.3255 1397.21 16.6953C1396.94 17.0599 1396.53 17.3516 1395.99 17.5703C1396.65 17.7839 1397.14 18.0807 1397.47 18.4609C1397.8 18.8411 1397.96 19.3073 1397.96 19.8594C1397.96 20.5312 1397.72 21.0573 1397.23 21.4375C1396.75 21.8125 1396.08 22 1395.23 22H1391.98ZM1393.51 20.8438H1394.15C1395.02 20.8438 1395.6 20.7682 1395.9 20.6172C1396.2 20.4609 1396.34 20.1615 1396.34 19.7188C1396.34 19.2448 1396.15 18.862 1395.76 18.5703C1395.37 18.2734 1394.86 18.125 1394.23 18.125H1393.51V20.8438ZM1393.51 17.1094H1394.28C1395.45 17.1094 1396.04 16.6328 1396.04 15.6797C1396.04 15.3464 1395.9 15.0964 1395.62 14.9297C1395.34 14.7578 1394.93 14.6719 1394.38 14.6719H1393.51V17.1094ZM1403.7 22.1953C1402.55 22.1953 1401.6 21.7708 1400.84 20.9219C1400.09 20.0729 1399.71 19.0026 1399.71 17.7109C1399.71 16.3307 1400.08 15.2552 1400.83 14.4844C1401.58 13.7135 1402.62 13.3281 1403.96 13.3281C1404.62 13.3281 1405.36 13.4193 1406.18 13.6016V14.8906C1405.31 14.6354 1404.6 14.5078 1404.05 14.5078C1403.27 14.5078 1402.64 14.8047 1402.16 15.3984C1401.68 15.987 1401.45 16.7734 1401.45 17.7578C1401.45 18.7109 1401.69 19.4818 1402.18 20.0703C1402.67 20.6589 1403.31 20.9531 1404.1 20.9531C1404.8 20.9531 1405.53 20.7734 1406.27 20.4141V21.7422C1405.28 22.0443 1404.42 22.1953 1403.7 22.1953ZM1414.8 21.7266C1413.77 22.0391 1412.89 22.1953 1412.16 22.1953C1410.91 22.1953 1409.89 21.7812 1409.09 20.9531C1408.31 20.1198 1407.91 19.0417 1407.91 17.7188C1407.91 16.4323 1408.26 15.3776 1408.95 14.5547C1409.65 13.7318 1410.54 13.3203 1411.62 13.3203C1412.65 13.3203 1413.44 13.6849 1414 14.4141C1414.56 15.1432 1414.84 16.1797 1414.84 17.5234L1414.84 18H1409.48C1409.71 20.0156 1410.7 21.0234 1412.45 21.0234C1413.09 21.0234 1413.87 20.8516 1414.8 20.5078V21.7266ZM1409.55 16.8438H1413.3C1413.3 15.2656 1412.71 14.4766 1411.53 14.4766C1410.35 14.4766 1409.69 15.2656 1409.55 16.8438Z" fill="#2C2A29"/>
<path d="M1310.03 23.9531H1415.96V24.7344H1310.03V23.9531Z" fill="#2C2A29"/>
<rect width="450.667" height="700" transform="translate(24 72)" fill="#D9D9D9"/>
<path d="M201.143 380.156V397.5H198.682V381.961H193.198V382.348L193.186 383.871L193.093 386.777C193.093 390.668 192.647 393.383 191.757 394.922C190.874 396.453 189.257 397.312 186.905 397.5V395.695C187.944 395.57 188.725 395.293 189.249 394.863C189.772 394.426 190.155 393.73 190.397 392.777C190.819 391.168 191.03 387.328 191.03 381.258V380.156H201.143ZM206.592 397.5V380.156H216.283V381.996H209.053V387.562H215.111V389.379H209.053V395.66H216.787V397.5H206.592ZM224.685 397.5V381.996H218.532V380.156H233.298V381.996H227.145V397.5H224.685ZM244.652 390.129H243.082C241.98 391.23 240.656 393.055 239.109 395.602C238.898 395.953 238.613 396.422 238.254 397.008L237.949 397.5H234.762C235.426 396.727 236.07 395.848 236.695 394.863L237.199 394.078L237.516 393.598L238.207 392.543C239.105 391.176 239.996 390.219 240.879 389.672C239.668 389.43 238.68 388.871 237.914 387.996C237.156 387.121 236.777 386.109 236.777 384.961C236.777 383.453 237.336 382.215 238.453 381.246C239.297 380.52 240.871 380.156 243.176 380.156H247.113V397.5H244.652V390.129ZM244.652 381.961H243.199C241.926 381.961 240.969 382.219 240.328 382.734C239.695 383.242 239.379 384.004 239.379 385.02C239.379 386.121 239.746 386.949 240.48 387.504C241.223 388.051 242.336 388.324 243.82 388.324H244.652V381.961ZM252.55 397.5V380.156H255.011V395.66H260.507V380.156H262.956V395.66H268.452V380.156H270.913V395.66H273.222V400.969H270.913V397.5H252.55ZM277.158 397.5V380.156H279.619V393.961L287.998 380.156H290.459V397.5H287.998V383.695L279.619 397.5H277.158ZM295.907 397.5V380.156H298.368V393.961L306.747 380.156H309.208V397.5H306.747V383.695L298.368 397.5H295.907ZM298.509 374.941H299.95C300.075 375.621 300.341 376.129 300.747 376.465C301.161 376.801 301.716 376.969 302.411 376.969C303.107 376.969 303.657 376.801 304.064 376.465C304.478 376.129 304.747 375.621 304.872 374.941H306.314C306.196 376.082 305.782 376.996 305.071 377.684C304.36 378.363 303.474 378.703 302.411 378.703C301.349 378.703 300.462 378.363 299.751 377.684C299.048 376.996 298.634 376.082 298.509 374.941ZM205.643 429.5V412.156H208.103V427.66H213.6V412.156H216.049V427.66H221.545V412.156H224.006V429.5H205.643ZM229.454 429.5V412.156H239.145V413.996H231.915V419.562H237.974V421.379H231.915V427.66H239.649V429.5H229.454ZM243.422 429.5V412.156H256.594V429.5H254.133V413.996H245.883V429.5H243.422ZM269.015 429.934C266.608 429.934 264.671 429.102 263.202 427.438C261.741 425.766 261.011 423.559 261.011 420.816C261.011 418.059 261.745 415.855 263.214 414.207C264.69 412.551 266.659 411.723 269.12 411.723C271.573 411.723 273.538 412.547 275.015 414.195C276.491 415.844 277.23 418.043 277.23 420.793C277.23 423.598 276.491 425.824 275.015 427.473C273.538 429.113 271.538 429.934 269.015 429.934ZM269.05 428.094C270.823 428.094 272.194 427.457 273.163 426.184C274.132 424.902 274.616 423.098 274.616 420.77C274.616 418.512 274.128 416.746 273.151 415.473C272.183 414.199 270.839 413.562 269.12 413.562C267.394 413.562 266.046 414.203 265.077 415.484C264.108 416.758 263.624 418.531 263.624 420.805C263.624 423.07 264.105 424.852 265.065 426.148C266.026 427.445 267.355 428.094 269.05 428.094ZM285.772 429.5V413.996H279.619V412.156H294.385V413.996H288.232V429.5H285.772Z" fill="white"/>
<path d="M203.461 466.5V454.938H212.242V466.5H210.602V456.164H205.102V466.5H203.461ZM218.594 466.695C217.38 466.695 216.411 466.294 215.688 465.492C214.964 464.685 214.602 463.607 214.602 462.258C214.602 460.893 214.964 459.815 215.688 459.023C216.417 458.227 217.404 457.828 218.648 457.828C219.893 457.828 220.878 458.227 221.602 459.023C222.331 459.815 222.695 460.888 222.695 462.242C222.695 463.628 222.331 464.716 221.602 465.508C220.872 466.299 219.87 466.695 218.594 466.695ZM218.617 465.539C220.247 465.539 221.062 464.44 221.062 462.242C221.062 460.07 220.258 458.984 218.648 458.984C217.044 458.984 216.242 460.076 216.242 462.258C216.242 464.445 217.034 465.539 218.617 465.539ZM228.414 466.695C227.268 466.695 226.318 466.271 225.562 465.422C224.807 464.573 224.43 463.503 224.43 462.211C224.43 460.831 224.802 459.755 225.547 458.984C226.297 458.214 227.341 457.828 228.68 457.828C229.341 457.828 230.081 457.919 230.898 458.102V459.391C230.029 459.135 229.32 459.008 228.773 459.008C227.987 459.008 227.354 459.305 226.875 459.898C226.401 460.487 226.164 461.273 226.164 462.258C226.164 463.211 226.409 463.982 226.898 464.57C227.388 465.159 228.029 465.453 228.82 465.453C229.523 465.453 230.247 465.273 230.992 464.914V466.242C229.997 466.544 229.138 466.695 228.414 466.695ZM233.305 466.5V458.016H234.984L237.531 464.648H237.547L240.047 458.016H241.836V466.5H240.289V460.055H240.273L238.07 465.922H236.586L234.523 460.609H234.508V466.5H233.305ZM248.25 466.695C247.036 466.695 246.068 466.294 245.344 465.492C244.62 464.685 244.258 463.607 244.258 462.258C244.258 460.893 244.62 459.815 245.344 459.023C246.073 458.227 247.06 457.828 248.305 457.828C249.549 457.828 250.534 458.227 251.258 459.023C251.987 459.815 252.352 460.888 252.352 462.242C252.352 463.628 251.987 464.716 251.258 465.508C250.529 466.299 249.526 466.695 248.25 466.695ZM248.273 465.539C249.904 465.539 250.719 464.44 250.719 462.242C250.719 460.07 249.914 458.984 248.305 458.984C246.701 458.984 245.898 460.076 245.898 462.258C245.898 464.445 246.69 465.539 248.273 465.539ZM256.406 466.5V459.25H253.414V458.016H260.938V459.25H257.945V466.5H256.406ZM262.664 469.586V458.016H264.203V459.609C264.833 458.422 265.779 457.828 267.039 457.828C268.06 457.828 268.862 458.201 269.445 458.945C270.034 459.69 270.328 460.708 270.328 462C270.328 463.406 269.995 464.542 269.328 465.406C268.667 466.266 267.794 466.695 266.711 466.695C265.706 466.695 264.87 466.31 264.203 465.539V469.586H262.664ZM264.203 464.477C264.995 465.185 265.75 465.539 266.469 465.539C267.948 465.539 268.688 464.411 268.688 462.156C268.688 460.167 268.031 459.172 266.719 459.172C265.859 459.172 265.021 459.638 264.203 460.57V464.477ZM278.961 466.227C277.93 466.539 277.047 466.695 276.312 466.695C275.062 466.695 274.042 466.281 273.25 465.453C272.464 464.62 272.07 463.542 272.07 462.219C272.07 460.932 272.417 459.878 273.109 459.055C273.807 458.232 274.698 457.82 275.781 457.82C276.807 457.82 277.599 458.185 278.156 458.914C278.719 459.643 279 460.68 279 462.023L278.992 462.5H273.641C273.865 464.516 274.852 465.523 276.602 465.523C277.242 465.523 278.029 465.352 278.961 465.008V466.227ZM273.711 461.344H277.453C277.453 459.766 276.865 458.977 275.688 458.977C274.505 458.977 273.846 459.766 273.711 461.344ZM283.312 466.5V459.25H280.32V458.016H287.844V459.25H284.852V466.5H283.312ZM289.57 466.5V458.016H291.109V461.438H291.852C293.018 461.438 293.893 461.643 294.477 462.055C295.065 462.466 295.359 463.083 295.359 463.906C295.359 464.771 295.047 465.419 294.422 465.852C293.802 466.284 292.87 466.5 291.625 466.5H289.57ZM291.109 465.344H291.727C292.388 465.344 292.885 465.227 293.219 464.992C293.552 464.758 293.719 464.404 293.719 463.93C293.719 463.487 293.555 463.154 293.227 462.93C292.898 462.706 292.406 462.594 291.75 462.594H291.109V465.344Z" fill="white"/>
<path d="M201.969 468.453H296.031V469.234H201.969V468.453Z" fill="white"/>
<rect width="450.667" height="700" transform="translate(494.667 72)" fill="#D9D9D9"/>
<path d="M670.169 397.5V380.156H673.579L678.384 393.574L683.329 380.156H686.376V397.5H684.079V383.391L679.298 396.34H676.919L672.278 383.355V397.5H670.169ZM699.746 390.129H698.176C697.074 391.23 695.75 393.055 694.203 395.602C693.992 395.953 693.707 396.422 693.348 397.008L693.043 397.5H689.856C690.52 396.727 691.164 395.848 691.789 394.863L692.293 394.078L692.609 393.598L693.301 392.543C694.199 391.176 695.09 390.219 695.973 389.672C694.762 389.43 693.773 388.871 693.008 387.996C692.25 387.121 691.871 386.109 691.871 384.961C691.871 383.453 692.43 382.215 693.547 381.246C694.391 380.52 695.965 380.156 698.27 380.156H702.207V397.5H699.746V390.129ZM699.746 381.961H698.293C697.02 381.961 696.063 382.219 695.422 382.734C694.789 383.242 694.473 384.004 694.473 385.02C694.473 386.121 694.84 386.949 695.574 387.504C696.316 388.051 697.43 388.324 698.914 388.324H699.746V381.961ZM707.644 397.5V380.156H717.347V382.031H710.105V397.5H707.644ZM720.838 397.5V380.156H723.299V387.598H723.709C724.631 387.598 725.311 387.43 725.748 387.094C726.186 386.758 726.733 385.984 727.389 384.773C727.576 384.422 727.725 384.148 727.834 383.953L728.303 383.168C729.053 381.895 729.666 381.078 730.143 380.719C730.619 380.352 731.315 380.168 732.229 380.168C732.244 380.168 732.35 380.164 732.545 380.156V381.961C731.983 381.961 731.549 382.082 731.244 382.324C730.94 382.559 730.561 383.07 730.108 383.859L729.721 384.539L729.346 385.207C729.252 385.371 729.092 385.664 728.865 386.086C728.287 387.164 727.494 387.934 726.486 388.395C727.401 388.605 728.139 388.992 728.701 389.555C729.272 390.117 729.912 391.098 730.623 392.496L731.256 393.762L731.912 395.016L732.721 396.562C732.799 396.719 732.975 397.031 733.248 397.5H730.67C730.475 397.156 730.361 396.953 730.33 396.891L729.451 395.168C728.467 393.246 727.682 391.898 727.096 391.125C726.51 390.344 725.869 389.793 725.174 389.473H723.299V397.5H720.838ZM737.103 397.5V380.156H739.564V393.961L747.943 380.156H750.403V397.5H747.943V383.695L739.564 397.5H737.103ZM755.852 397.5V380.156H758.313V393.961L766.692 380.156H769.153V397.5H766.692V383.695L758.313 397.5H755.852ZM758.453 374.941H759.895C760.02 375.621 760.285 376.129 760.692 376.465C761.106 376.801 761.66 376.969 762.356 376.969C763.051 376.969 763.602 376.801 764.008 376.465C764.422 376.129 764.692 375.621 764.817 374.941H766.258C766.141 376.082 765.727 376.996 765.016 377.684C764.305 378.363 763.418 378.703 762.356 378.703C761.293 378.703 760.406 378.363 759.696 377.684C758.992 376.996 758.578 376.082 758.453 374.941ZM676.309 429.5V412.156H678.77V427.66H684.266V412.156H686.715V427.66H692.211V412.156H694.672V429.5H676.309ZM700.121 429.5V412.156H709.812V413.996H702.582V419.562H708.64V421.379H702.582V427.66H710.316V429.5H700.121ZM714.089 429.5V412.156H727.26V429.5H724.799V413.996H716.549V429.5H714.089ZM739.681 429.934C737.275 429.934 735.338 429.102 733.869 427.438C732.408 425.766 731.677 423.559 731.677 420.816C731.677 418.059 732.412 415.855 733.881 414.207C735.357 412.551 737.326 411.723 739.787 411.723C742.24 411.723 744.205 412.547 745.681 414.195C747.158 415.844 747.896 418.043 747.896 420.793C747.896 423.598 747.158 425.824 745.681 427.473C744.205 429.113 742.205 429.934 739.681 429.934ZM739.716 428.094C741.49 428.094 742.861 427.457 743.83 426.184C744.799 424.902 745.283 423.098 745.283 420.77C745.283 418.512 744.795 416.746 743.818 415.473C742.849 414.199 741.506 413.562 739.787 413.562C738.06 413.562 736.713 414.203 735.744 415.484C734.775 416.758 734.291 418.531 734.291 420.805C734.291 423.07 734.771 424.852 735.732 426.148C736.693 427.445 738.021 428.094 739.716 428.094ZM756.438 429.5V413.996H750.286V412.156H765.051V413.996H758.899V429.5H756.438Z" fill="white"/>
<path d="M674.128 466.5V454.938H682.909V466.5H681.268V456.164H675.768V466.5H674.128ZM689.26 466.695C688.047 466.695 687.078 466.294 686.354 465.492C685.63 464.685 685.268 463.607 685.268 462.258C685.268 460.893 685.63 459.815 686.354 459.023C687.083 458.227 688.07 457.828 689.315 457.828C690.56 457.828 691.544 458.227 692.268 459.023C692.997 459.815 693.362 460.888 693.362 462.242C693.362 463.628 692.997 464.716 692.268 465.508C691.539 466.299 690.536 466.695 689.26 466.695ZM689.284 465.539C690.914 465.539 691.729 464.44 691.729 462.242C691.729 460.07 690.924 458.984 689.315 458.984C687.711 458.984 686.909 460.076 686.909 462.258C686.909 464.445 687.7 465.539 689.284 465.539ZM699.081 466.695C697.935 466.695 696.984 466.271 696.229 465.422C695.474 464.573 695.096 463.503 695.096 462.211C695.096 460.831 695.469 459.755 696.214 458.984C696.964 458.214 698.008 457.828 699.346 457.828C700.008 457.828 700.747 457.919 701.565 458.102V459.391C700.695 459.135 699.987 459.008 699.44 459.008C698.654 459.008 698.021 459.305 697.542 459.898C697.068 460.487 696.831 461.273 696.831 462.258C696.831 463.211 697.075 463.982 697.565 464.57C698.055 465.159 698.695 465.453 699.487 465.453C700.19 465.453 700.914 465.273 701.659 464.914V466.242C700.664 466.544 699.805 466.695 699.081 466.695ZM703.971 466.5V458.016H705.651L708.198 464.648H708.214L710.714 458.016H712.503V466.5H710.956V460.055H710.94L708.737 465.922H707.253L705.19 460.609H705.174V466.5H703.971ZM718.917 466.695C717.703 466.695 716.734 466.294 716.01 465.492C715.286 464.685 714.924 463.607 714.924 462.258C714.924 460.893 715.286 459.815 716.01 459.023C716.74 458.227 717.727 457.828 718.971 457.828C720.216 457.828 721.2 458.227 721.924 459.023C722.654 459.815 723.018 460.888 723.018 462.242C723.018 463.628 722.654 464.716 721.924 465.508C721.195 466.299 720.193 466.695 718.917 466.695ZM718.94 465.539C720.57 465.539 721.385 464.44 721.385 462.242C721.385 460.07 720.581 458.984 718.971 458.984C717.367 458.984 716.565 460.076 716.565 462.258C716.565 464.445 717.357 465.539 718.94 465.539ZM727.073 466.5V459.25H724.081V458.016H731.604V459.25H728.612V466.5H727.073ZM733.331 469.586V458.016H734.87V459.609C735.5 458.422 736.445 457.828 737.706 457.828C738.727 457.828 739.529 458.201 740.112 458.945C740.7 459.69 740.995 460.708 740.995 462C740.995 463.406 740.661 464.542 739.995 465.406C739.333 466.266 738.461 466.695 737.378 466.695C736.372 466.695 735.536 466.31 734.87 465.539V469.586H733.331ZM734.87 464.477C735.661 465.185 736.417 465.539 737.135 465.539C738.615 465.539 739.354 464.411 739.354 462.156C739.354 460.167 738.698 459.172 737.385 459.172C736.526 459.172 735.687 459.638 734.87 460.57V464.477ZM749.628 466.227C748.596 466.539 747.714 466.695 746.979 466.695C745.729 466.695 744.708 466.281 743.917 465.453C743.13 464.62 742.737 463.542 742.737 462.219C742.737 460.932 743.083 459.878 743.776 459.055C744.474 458.232 745.365 457.82 746.448 457.82C747.474 457.82 748.266 458.185 748.823 458.914C749.385 459.643 749.667 460.68 749.667 462.023L749.659 462.5H744.307C744.531 464.516 745.518 465.523 747.268 465.523C747.909 465.523 748.695 465.352 749.628 465.008V466.227ZM744.378 461.344H748.12C748.12 459.766 747.531 458.977 746.354 458.977C745.172 458.977 744.513 459.766 744.378 461.344ZM753.979 466.5V459.25H750.987V458.016H758.51V459.25H755.518V466.5H753.979ZM760.237 466.5V458.016H761.776V461.438H762.518C763.685 461.438 764.56 461.643 765.143 462.055C765.732 462.466 766.026 463.083 766.026 463.906C766.026 464.771 765.714 465.419 765.089 465.852C764.469 466.284 763.536 466.5 762.292 466.5H760.237ZM761.776 465.344H762.393C763.055 465.344 763.552 465.227 763.885 464.992C764.219 464.758 764.385 464.404 764.385 463.93C764.385 463.487 764.221 463.154 763.893 462.93C763.565 462.706 763.073 462.594 762.417 462.594H761.776V465.344Z" fill="white"/>
<path d="M672.635 468.453H766.698V469.234H672.635V468.453Z" fill="white"/>
<rect width="450.667" height="700" transform="translate(965.333 72)" fill="#D9D9D9"/>
<path d="M1118.78 397.934C1116.09 397.934 1114.01 397.145 1112.54 395.566C1111.07 393.98 1110.33 391.738 1110.33 388.84C1110.33 385.949 1111.08 383.707 1112.57 382.113C1114.07 380.52 1116.18 379.723 1118.9 379.723C1120.45 379.723 1122.27 379.977 1124.36 380.484V382.793C1121.99 381.973 1120.15 381.562 1118.86 381.562C1116.98 381.562 1115.52 382.199 1114.49 383.473C1113.46 384.746 1112.95 386.543 1112.95 388.863C1112.95 391.074 1113.5 392.82 1114.6 394.102C1115.7 395.375 1117.2 396.012 1119.11 396.012C1120.75 396.012 1122.51 395.508 1124.38 394.5V396.609C1122.67 397.492 1120.81 397.934 1118.78 397.934ZM1128.93 397.5V380.156H1133.43C1135.16 380.156 1136.49 380.484 1137.41 381.141C1138.34 381.797 1138.81 382.742 1138.81 383.977C1138.81 386.078 1137.62 387.574 1135.25 388.465C1138.08 389.332 1139.5 390.898 1139.5 393.164C1139.5 394.57 1139.03 395.645 1138.09 396.387C1137.16 397.129 1135.8 397.5 1134.04 397.5H1128.93ZM1131.37 395.66H1131.87C1133.68 395.66 1134.84 395.547 1135.38 395.32C1136.39 394.891 1136.9 394.094 1136.9 392.93C1136.9 391.898 1136.44 391.043 1135.52 390.363C1134.59 389.676 1133.44 389.332 1132.06 389.332H1131.37V395.66ZM1131.37 387.773H1132.15C1133.47 387.773 1134.48 387.492 1135.2 386.93C1135.93 386.367 1136.29 385.574 1136.29 384.551C1136.29 382.848 1134.97 381.996 1132.33 381.996H1131.37V387.773ZM1150.68 397.934C1148.27 397.934 1146.34 397.102 1144.87 395.438C1143.41 393.766 1142.68 391.559 1142.68 388.816C1142.68 386.059 1143.41 383.855 1144.88 382.207C1146.35 380.551 1148.32 379.723 1150.78 379.723C1153.24 379.723 1155.2 380.547 1156.68 382.195C1158.16 383.844 1158.89 386.043 1158.89 388.793C1158.89 391.598 1158.16 393.824 1156.68 395.473C1155.2 397.113 1153.2 397.934 1150.68 397.934ZM1150.71 396.094C1152.49 396.094 1153.86 395.457 1154.83 394.184C1155.8 392.902 1156.28 391.098 1156.28 388.77C1156.28 386.512 1155.79 384.746 1154.82 383.473C1153.85 382.199 1152.5 381.562 1150.78 381.562C1149.06 381.562 1147.71 382.203 1146.74 383.484C1145.77 384.758 1145.29 386.531 1145.29 388.805C1145.29 391.07 1145.77 392.852 1146.73 394.148C1147.69 395.445 1149.02 396.094 1150.71 396.094ZM1163.31 397.5V380.156H1173V381.996H1165.77V387.598H1167.1C1169.35 387.598 1170.95 387.891 1171.88 388.477C1173.21 389.32 1173.87 390.566 1173.87 392.215C1173.87 394.145 1173.12 395.582 1171.61 396.527C1170.58 397.176 1168.86 397.5 1166.46 397.5H1163.31ZM1165.77 395.695H1166.64C1168.3 395.695 1169.51 395.434 1170.27 394.91C1171.03 394.379 1171.41 393.539 1171.41 392.391C1171.41 391.398 1171.04 390.652 1170.3 390.152C1169.56 389.652 1168.46 389.402 1166.98 389.402H1165.77V395.695ZM1185.22 397.934C1182.82 397.934 1180.88 397.102 1179.41 395.438C1177.95 393.766 1177.22 391.559 1177.22 388.816C1177.22 386.059 1177.95 383.855 1179.42 382.207C1180.9 380.551 1182.87 379.723 1185.33 379.723C1187.78 379.723 1189.75 380.547 1191.22 382.195C1192.7 383.844 1193.44 386.043 1193.44 388.793C1193.44 391.598 1192.7 393.824 1191.22 395.473C1189.75 397.113 1187.75 397.934 1185.22 397.934ZM1185.26 396.094C1187.03 396.094 1188.4 395.457 1189.37 394.184C1190.34 392.902 1190.83 391.098 1190.83 388.77C1190.83 386.512 1190.34 384.746 1189.36 383.473C1188.39 382.199 1187.05 381.562 1185.33 381.562C1183.6 381.562 1182.26 382.203 1181.29 383.484C1180.32 384.758 1179.83 386.531 1179.83 388.805C1179.83 391.07 1180.31 392.852 1181.27 394.148C1182.24 395.445 1183.56 396.094 1185.26 396.094ZM1196.48 400.969V395.66H1197.86C1199.23 393.535 1200.19 391.453 1200.73 389.414C1201.27 387.375 1201.55 384.824 1201.55 381.762V380.156H1210.79V395.66H1213.18V400.969H1210.79V397.5H1198.88V400.969H1196.48ZM1200.33 395.66H1208.34V381.961H1203.79V382.242C1203.79 384.758 1203.5 387.133 1202.92 389.367C1202.34 391.602 1201.48 393.699 1200.33 395.66ZM1217.12 397.5V380.156H1219.58V387.469H1227.83V380.156H1230.29V397.5H1227.83V389.309H1219.58V397.5H1217.12ZM1235.73 397.5V380.156H1238.19V387.598H1239.51C1241.77 387.598 1243.37 387.891 1244.3 388.477C1245.62 389.32 1246.29 390.566 1246.29 392.215C1246.29 394.145 1245.53 395.582 1244.03 396.527C1242.99 397.176 1241.28 397.5 1238.88 397.5H1235.73ZM1238.19 395.695H1239.06C1240.72 395.695 1241.93 395.434 1242.69 394.91C1243.45 394.379 1243.83 393.539 1243.83 392.391C1243.83 391.398 1243.46 390.652 1242.71 390.152C1241.98 389.652 1240.87 389.402 1239.4 389.402H1238.19V395.695ZM1248.09 397.5V380.156H1250.55V397.5H1248.09ZM1256 397.5V380.156H1258.46V393.961L1266.84 380.156H1269.3V397.5H1266.84V383.695L1258.46 397.5H1256ZM1258.6 374.941H1260.04C1260.17 375.621 1260.44 376.129 1260.84 376.465C1261.26 376.801 1261.81 376.969 1262.51 376.969C1263.2 376.969 1263.75 376.801 1264.16 376.465C1264.57 376.129 1264.84 375.621 1264.97 374.941H1266.41C1266.29 376.082 1265.88 376.996 1265.17 377.684C1264.45 378.363 1263.57 378.703 1262.51 378.703C1261.44 378.703 1260.56 378.363 1259.85 377.684C1259.14 376.996 1258.73 376.082 1258.6 374.941ZM1146.98 429.5V412.156H1149.44V427.66H1154.93V412.156H1157.38V427.66H1162.88V412.156H1165.34V429.5H1146.98ZM1170.79 429.5V412.156H1180.48V413.996H1173.25V419.562H1179.31V421.379H1173.25V427.66H1180.98V429.5H1170.79ZM1184.76 429.5V412.156H1197.93V429.5H1195.47V413.996H1187.22V429.5H1184.76ZM1210.35 429.934C1207.94 429.934 1206 429.102 1204.54 427.438C1203.07 425.766 1202.34 423.559 1202.34 420.816C1202.34 418.059 1203.08 415.855 1204.55 414.207C1206.02 412.551 1207.99 411.723 1210.45 411.723C1212.91 411.723 1214.87 412.547 1216.35 414.195C1217.82 415.844 1218.56 418.043 1218.56 420.793C1218.56 423.598 1217.82 425.824 1216.35 427.473C1214.87 429.113 1212.87 429.934 1210.35 429.934ZM1210.38 428.094C1212.16 428.094 1213.53 427.457 1214.5 426.184C1215.47 424.902 1215.95 423.098 1215.95 420.77C1215.95 418.512 1215.46 416.746 1214.48 415.473C1213.52 414.199 1212.17 413.562 1210.45 413.562C1208.73 413.562 1207.38 414.203 1206.41 415.484C1205.44 416.758 1204.96 418.531 1204.96 420.805C1204.96 423.07 1205.44 424.852 1206.4 426.148C1207.36 427.445 1208.69 428.094 1210.38 428.094ZM1227.1 429.5V413.996H1220.95V412.156H1235.72V413.996H1229.57V429.5H1227.1Z" fill="white"/>
<path d="M1144.79 466.5V454.938H1153.58V466.5H1151.93V456.164H1146.43V466.5H1144.79ZM1159.93 466.695C1158.71 466.695 1157.74 466.294 1157.02 465.492C1156.3 464.685 1155.93 463.607 1155.93 462.258C1155.93 460.893 1156.3 459.815 1157.02 459.023C1157.75 458.227 1158.74 457.828 1159.98 457.828C1161.23 457.828 1162.21 458.227 1162.93 459.023C1163.66 459.815 1164.03 460.888 1164.03 462.242C1164.03 463.628 1163.66 464.716 1162.93 465.508C1162.21 466.299 1161.2 466.695 1159.93 466.695ZM1159.95 465.539C1161.58 465.539 1162.4 464.44 1162.4 462.242C1162.4 460.07 1161.59 458.984 1159.98 458.984C1158.38 458.984 1157.58 460.076 1157.58 462.258C1157.58 464.445 1158.37 465.539 1159.95 465.539ZM1169.75 466.695C1168.6 466.695 1167.65 466.271 1166.9 465.422C1166.14 464.573 1165.76 463.503 1165.76 462.211C1165.76 460.831 1166.14 459.755 1166.88 458.984C1167.63 458.214 1168.67 457.828 1170.01 457.828C1170.67 457.828 1171.41 457.919 1172.23 458.102V459.391C1171.36 459.135 1170.65 459.008 1170.11 459.008C1169.32 459.008 1168.69 459.305 1168.21 459.898C1167.73 460.487 1167.5 461.273 1167.5 462.258C1167.5 463.211 1167.74 463.982 1168.23 464.57C1168.72 465.159 1169.36 465.453 1170.15 465.453C1170.86 465.453 1171.58 465.273 1172.33 464.914V466.242C1171.33 466.544 1170.47 466.695 1169.75 466.695ZM1174.64 466.5V458.016H1176.32L1178.86 464.648H1178.88L1181.38 458.016H1183.17V466.5H1181.62V460.055H1181.61L1179.4 465.922H1177.92L1175.86 460.609H1175.84V466.5H1174.64ZM1189.58 466.695C1188.37 466.695 1187.4 466.294 1186.68 465.492C1185.95 464.685 1185.59 463.607 1185.59 462.258C1185.59 460.893 1185.95 459.815 1186.68 459.023C1187.41 458.227 1188.39 457.828 1189.64 457.828C1190.88 457.828 1191.87 458.227 1192.59 459.023C1193.32 459.815 1193.68 460.888 1193.68 462.242C1193.68 463.628 1193.32 464.716 1192.59 465.508C1191.86 466.299 1190.86 466.695 1189.58 466.695ZM1189.61 465.539C1191.24 465.539 1192.05 464.44 1192.05 462.242C1192.05 460.07 1191.25 458.984 1189.64 458.984C1188.03 458.984 1187.23 460.076 1187.23 462.258C1187.23 464.445 1188.02 465.539 1189.61 465.539ZM1197.74 466.5V459.25H1194.75V458.016H1202.27V459.25H1199.28V466.5H1197.74ZM1204 469.586V458.016H1205.54V459.609C1206.17 458.422 1207.11 457.828 1208.37 457.828C1209.39 457.828 1210.2 458.201 1210.78 458.945C1211.37 459.69 1211.66 460.708 1211.66 462C1211.66 463.406 1211.33 464.542 1210.66 465.406C1210 466.266 1209.13 466.695 1208.04 466.695C1207.04 466.695 1206.2 466.31 1205.54 465.539V469.586H1204ZM1205.54 464.477C1206.33 465.185 1207.08 465.539 1207.8 465.539C1209.28 465.539 1210.02 464.411 1210.02 462.156C1210.02 460.167 1209.36 459.172 1208.05 459.172C1207.19 459.172 1206.35 459.638 1205.54 460.57V464.477ZM1220.29 466.227C1219.26 466.539 1218.38 466.695 1217.65 466.695C1216.4 466.695 1215.38 466.281 1214.58 465.453C1213.8 464.62 1213.4 463.542 1213.4 462.219C1213.4 460.932 1213.75 459.878 1214.44 459.055C1215.14 458.232 1216.03 457.82 1217.11 457.82C1218.14 457.82 1218.93 458.185 1219.49 458.914C1220.05 459.643 1220.33 460.68 1220.33 462.023L1220.33 462.5H1214.97C1215.2 464.516 1216.18 465.523 1217.93 465.523C1218.58 465.523 1219.36 465.352 1220.29 465.008V466.227ZM1215.04 461.344H1218.79C1218.79 459.766 1218.2 458.977 1217.02 458.977C1215.84 458.977 1215.18 459.766 1215.04 461.344ZM1224.65 466.5V459.25H1221.65V458.016H1229.18V459.25H1226.18V466.5H1224.65ZM1230.9 466.5V458.016H1232.44V461.438H1233.18C1234.35 461.438 1235.23 461.643 1235.81 462.055C1236.4 462.466 1236.69 463.083 1236.69 463.906C1236.69 464.771 1236.38 465.419 1235.76 465.852C1235.14 466.284 1234.2 466.5 1232.96 466.5H1230.9ZM1232.44 465.344H1233.06C1233.72 465.344 1234.22 465.227 1234.55 464.992C1234.89 464.758 1235.05 464.404 1235.05 463.93C1235.05 463.487 1234.89 463.154 1234.56 462.93C1234.23 462.706 1233.74 462.594 1233.08 462.594H1232.44V465.344Z" fill="white"/>
<path d="M1143.3 468.453H1237.36V469.234H1143.3V468.453Z" fill="white"/>
<g clip-path="url(#clip0_121_105177)">
<circle cx="24" cy="422" r="20" fill="#2C2A29"/>
<path d="M26 428L20 422L26 416" stroke="white" stroke-linecap="round" stroke-linejoin="round"/>
</g>
<g clip-path="url(#clip1_121_105177)">
<circle cx="1416" cy="422" r="20" fill="#2C2A29"/>
<path d="M1414 428L1420 422L1414 416" stroke="white" stroke-linecap="round" stroke-linejoin="round"/>
</g>
<defs>
<clipPath id="clip0_121_105177">
<rect width="40" height="40" fill="white" transform="translate(4 402)"/>
</clipPath>
<clipPath id="clip1_121_105177">
<rect width="40" height="40" fill="white" transform="translate(1396 402)"/>
</clipPath>
</defs>
</svg>
