<svg width="122" height="28" viewBox="0 0 122 28" fill="none" xmlns="http://www.w3.org/2000/svg">
<path d="M35.1502 0.0410848C34.5347 0.13989 33.7141 0.436304 33.2658 0.725117C32.6047 1.15074 31.9057 2.05518 31.8981 2.4884C31.8981 2.64041 31.9817 2.66321 32.0956 2.5568C32.2248 2.4276 33.0682 2.18439 33.5773 2.13118C34.5651 2.02478 35.5377 2.26799 37.5741 3.12683C39.8612 4.09208 40.9174 4.37329 42.2699 4.37329C44.4278 4.37329 46.1755 3.20284 46.487 1.55356C46.5326 1.34075 46.5402 1.13554 46.5174 1.09754C46.4946 1.05953 46.3502 1.12794 46.1983 1.24194C45.4688 1.81957 44.6406 2.05518 43.5996 1.99438C42.7334 1.94118 42.1635 1.78917 40.4995 1.15074C38.2731 0.299497 37.4525 0.0790868 36.2596 0.0106835C35.8872 -0.0121174 35.3857 0.00308323 35.1502 0.0410848Z" fill="black"/>
<path d="M86.1279 8.43952C83.4381 8.81954 81.1814 9.83799 79.5553 11.3961C78.2636 12.6425 77.5189 13.9194 77.0554 15.7359C76.7895 16.7847 76.7211 18.8064 76.9187 19.9617C77.253 21.991 78.1496 23.701 79.5629 25.0159C83.9168 29.0745 92.6398 28.9757 96.7809 24.8259C98.0422 23.5566 98.8173 22.067 99.1972 20.1973C99.3643 19.3688 99.3795 17.2255 99.2276 16.3819C98.8856 14.4818 98.065 12.8781 96.7505 11.5557C95.2612 10.0508 93.164 9.00955 90.7022 8.54593C89.57 8.34072 87.2221 8.27991 86.1279 8.43952ZM90.1019 9.00955C92.7993 9.67078 94.4862 11.7229 95.132 15.1278C95.284 15.9335 95.3068 16.2755 95.3068 18.13C95.3068 19.9693 95.284 20.3341 95.1396 21.1549C94.3722 25.3731 91.9787 27.5544 88.1111 27.5544C84.7374 27.5544 82.4807 25.9584 81.4321 22.827C80.5279 20.1213 80.5735 15.7587 81.5309 13.2201C81.9488 12.0953 82.3819 11.4113 83.1494 10.636C83.7496 10.0356 83.932 9.89879 84.631 9.55677C85.8848 8.93354 86.7054 8.77394 88.3543 8.81954C89.1293 8.84234 89.646 8.89554 90.1019 9.00955Z" fill="black"/>
<path d="M87.4803 16.8834C86.9256 17.1722 86.6521 17.651 86.6976 18.2514C86.7964 19.4447 88.2021 19.9691 89.0456 19.1255C89.547 18.6239 89.6002 17.8714 89.1899 17.2862C88.8632 16.8302 87.9818 16.625 87.4803 16.8834Z" fill="black"/>
<path d="M0.440674 18.13V27.5544H12.8261H25.2115L25.1963 18.1452L25.1735 8.74355L23.2587 8.72075L21.3363 8.70555V17.902V27.0984H18.031H14.7257V17.902V8.70555H12.7881H10.8505V17.902V27.0984H7.58317H4.31586V17.902V8.70555H2.37827H0.440674V18.13Z" fill="black"/>
<path d="M52.6417 18.13V27.5544H54.5793H56.5169V18.358V9.16157H61.5698H66.6228V18.358V27.5544H68.5604H70.498L70.4828 18.1452L70.46 8.74355L61.5546 8.72075L52.6417 8.70555V18.13Z" fill="black"/>
<path d="M102.183 8.93356V9.16157H106.059H109.934V18.358V27.5544H111.871H113.809V18.358V9.16157H117.684H121.559V8.93356V8.70555H111.871H102.183V8.93356Z" fill="black"/>
<path d="M31.7613 18.1833L31.7841 27.5925H39.1925H46.601L46.6238 27.3417L46.6466 27.0985H41.1377H35.6213V22.5763V18.0541H39.9144H44.2075V17.7881V17.5221H39.9144H35.6213V13.3799V9.23766H41.1301H46.639V9.00965V8.78164H39.1925H31.7461L31.7613 18.1833Z" fill="black"/>
</svg>
