<?xml version="1.0" standalone="no"?>
<!DOCTYPE svg PUBLIC "-//W3C//DTD SVG 20010904//EN"
 "http://www.w3.org/TR/2001/REC-SVG-20010904/DTD/svg10.dtd">
<svg version="1.0" xmlns="http://www.w3.org/2000/svg"
 width="1240.000000pt" height="1240.000000pt" viewBox="0 0 1240.000000 1240.000000"
 preserveAspectRatio="xMidYMid meet">

<g transform="translate(0.000000,1240.000000) scale(0.100000,-0.100000)"
fill="#000000" stroke="none">
<path d="M4450 7421 c-73 -24 -132 -66 -156 -113 -22 -43 -17 -49 26 -32 30
12 61 15 118 12 65 -5 101 -15 228 -67 190 -77 282 -94 379 -69 36 10 83 29
105 44 47 31 90 98 90 138 l0 27 -27 -19 c-41 -28 -90 -42 -147 -42 -55 0
-104 14 -286 80 -99 36 -129 43 -210 46 -52 2 -106 0 -120 -5z"/>
<path d="M7860 6874 c-275 -50 -460 -171 -550 -358 -48 -102 -63 -183 -57
-321 7 -182 56 -297 175 -413 75 -73 202 -140 327 -174 65 -17 108 -21 235
-21 135 0 168 3 251 25 321 86 499 304 499 613 0 305 -175 528 -485 620 -75
22 -114 28 -230 30 -77 2 -151 2 -165 -1z m267 -38 c175 -47 281 -170 329
-381 25 -110 25 -339 0 -450 -58 -256 -220 -395 -461 -395 -184 0 -324 79
-403 227 -59 112 -75 195 -75 393 0 147 3 187 21 251 68 250 212 367 452 368
47 1 109 -6 137 -13z"/>
<path d="M7939 6307 c-47 -36 -48 -111 -2 -147 46 -36 112 -21 138 31 32 62
-9 129 -79 129 -23 0 -48 -6 -57 -13z"/>
<path d="M2200 6233 l0 -623 818 0 817 0 -3 620 -2 620 -125 0 -125 0 0 -605
0 -605 -220 0 -220 0 2 605 3 605 -127 0 -128 0 0 -605 0 -605 -220 0 -220 0
0 608 0 607 -125 0 -125 0 0 -622z"/>
<path d="M4270 6233 l0 -623 490 0 c429 0 490 2 490 15 0 13 -47 15 -365 15
l-365 0 0 300 0 300 285 0 c245 0 285 2 285 15 0 13 -41 15 -282 17 l-283 3
-3 273 -2 272 365 0 c316 0 365 2 365 15 0 13 -65 15 -490 17 l-490 3 0 -622z"/>
<path d="M5650 6233 l0 -623 130 0 130 0 0 610 0 610 330 0 330 0 0 -610 0
-610 130 0 130 0 0 623 0 622 -590 0 -590 0 0 -622z"/>
<path d="M8930 6840 c0 -6 92 -10 255 -10 l255 0 0 -610 0 -610 130 0 130 0 0
610 0 610 255 0 c163 0 255 4 255 10 0 7 -220 10 -640 10 -420 0 -640 -3 -640
-10z"/>
<path d="M5010 4271 c0 -134 1 -139 20 -134 17 5 20 14 20 64 l0 59 75 0 75 0
0 -59 c0 -50 3 -59 20 -64 19 -5 20 0 20 134 0 132 -1 139 -20 139 -18 0 -20
-7 -20 -60 l0 -60 -75 0 -75 0 0 60 c0 53 -2 60 -20 60 -19 0 -20 -7 -20 -139z"/>
<path d="M5753 4389 c-18 -11 -38 -37 -48 -61 -50 -125 72 -236 198 -180 54
24 77 62 77 127 0 88 -50 135 -142 135 -36 0 -63 -7 -85 -21z m144 -29 c86
-52 45 -190 -57 -190 -103 0 -144 137 -56 191 40 24 73 24 113 -1z"/>
<path d="M6440 4276 c0 -114 2 -136 15 -136 12 0 15 17 15 91 0 49 4 88 9 85
5 -3 27 -37 50 -76 23 -38 47 -70 54 -70 7 0 32 35 57 78 l45 77 3 -96 c3 -91
4 -97 22 -92 19 5 20 15 20 139 0 124 -1 134 -19 134 -13 0 -34 -27 -70 -90
-29 -49 -55 -90 -59 -90 -4 0 -30 40 -58 88 -27 48 -58 88 -67 90 -15 3 -17
-10 -17 -132z"/>
<path d="M7200 4275 l0 -135 100 0 c82 0 100 3 100 15 0 12 -16 15 -80 15
l-80 0 0 45 0 45 70 0 c55 0 70 3 70 15 0 11 -16 15 -67 17 l-68 3 0 40 0 40
75 1 c61 1 76 5 78 18 3 14 -10 16 -97 16 l-101 0 0 -135z"/>
</g>
</svg>
